<svg width="64" height="64" viewBox="0 0 64 64" fill="none" xmlns="http://www.w3.org/2000/svg">
<path d="M30.8526 15.4263C30.8526 23.946 23.946 30.8526 15.4263 30.8526C6.90659 30.8526 0 23.946 0 15.4263C0 6.90659 6.90659 0 15.4263 0C23.946 0 30.8526 6.90659 30.8526 15.4263Z" fill="#10B981"/>
<path d="M64 48.5737C64 57.0934 57.0934 64 48.5737 64C40.054 64 33.1474 57.0934 33.1474 48.5737C33.1474 40.054 40.054 33.1474 48.5737 33.1474C57.0934 33.1474 64 40.054 64 48.5737Z" fill="#10B981"/>
<path d="M0 33.1474H30.8526V47.6813C30.8526 56.6939 23.5464 64 14.5339 64H0V33.1474Z" fill="#10B981"/>
<path d="M33.1474 16.3187C33.1474 7.30615 40.4536 0 49.4661 0H64V30.8526H33.1474V16.3187Z" fill="#10B981"/>
</svg>
