<svg width="235" height="74" viewBox="0 0 235 74" fill="none" xmlns="http://www.w3.org/2000/svg">
<path d="M30.8526 20.4263C30.8526 28.946 23.946 35.8526 15.4263 35.8526C6.90659 35.8526 0 28.946 0 20.4263C0 11.9066 6.90659 5 15.4263 5C23.946 5 30.8526 11.9066 30.8526 20.4263Z" fill="#10B981"/>
<path d="M64 53.5737C64 62.0934 57.0934 69 48.5737 69C40.054 69 33.1474 62.0934 33.1474 53.5737C33.1474 45.054 40.054 38.1474 48.5737 38.1474C57.0934 38.1474 64 45.054 64 53.5737Z" fill="#10B981"/>
<path d="M0 38.1474H30.8526V52.6813C30.8526 61.6939 23.5464 69 14.5339 69H0V38.1474Z" fill="#10B981"/>
<path d="M33.1474 21.3187C33.1474 12.3061 40.4536 5 49.4661 5H64V35.8526H33.1474V21.3187Z" fill="#10B981"/>
<path d="M89.216 53.384C90.624 53.384 91.776 53.2773 92.672 53.064C93.6107 52.808 94.3573 52.488 94.912 52.104C95.4667 51.6773 95.8507 51.1867 96.064 50.632C96.2773 50.0773 96.384 49.4587 96.384 48.776C96.384 47.3253 95.7013 46.1307 94.336 45.192C92.9707 44.2107 90.624 43.1653 87.296 42.056C85.8453 41.544 84.3947 40.968 82.944 40.328C81.4933 39.6453 80.192 38.8133 79.04 37.832C77.888 36.808 76.9493 35.592 76.224 34.184C75.4987 32.7333 75.136 30.984 75.136 28.936C75.136 26.888 75.52 25.0533 76.288 23.432C77.056 21.768 78.144 20.36 79.552 19.208C80.96 18.056 82.6667 17.1813 84.672 16.584C86.6773 15.944 88.9387 15.624 91.456 15.624C94.4427 15.624 97.024 15.944 99.2 16.584C101.376 17.224 103.168 17.928 104.576 18.696L101.696 26.568C100.459 25.928 99.072 25.3733 97.536 24.904C96.0427 24.392 94.2293 24.136 92.096 24.136C89.7067 24.136 87.9787 24.4773 86.912 25.16C85.888 25.8 85.376 26.8027 85.376 28.168C85.376 28.9787 85.568 29.6613 85.952 30.216C86.336 30.7707 86.8693 31.2827 87.552 31.752C88.2773 32.1787 89.088 32.584 89.984 32.968C90.9227 33.3093 91.9467 33.672 93.056 34.056C95.36 34.9093 97.3653 35.7627 99.072 36.616C100.779 37.4267 102.187 38.3867 103.296 39.496C104.448 40.6053 105.301 41.9067 105.856 43.4C106.411 44.8933 106.688 46.7067 106.688 48.84C106.688 52.9787 105.237 56.2 102.336 58.504C99.4347 60.7653 95.0613 61.896 89.216 61.896C87.2533 61.896 85.4827 61.768 83.904 61.512C82.3253 61.2987 80.9173 61.0213 79.68 60.68C78.4853 60.3387 77.44 59.976 76.544 59.592C75.6907 59.208 74.9653 58.8453 74.368 58.504L77.184 50.568C78.5067 51.2933 80.128 51.9547 82.048 52.552C84.0107 53.1067 86.4 53.384 89.216 53.384ZM127.682 16.136C134.295 16.136 139.373 17.3093 142.914 19.656C146.455 21.96 148.226 25.7573 148.226 31.048C148.226 36.3813 146.434 40.2427 142.85 42.632C139.266 44.9787 134.146 46.152 127.49 46.152H124.354V61H114.37V17.288C116.546 16.8613 118.85 16.5627 121.282 16.392C123.714 16.2213 125.847 16.136 127.682 16.136ZM128.322 24.648C127.597 24.648 126.871 24.6693 126.146 24.712C125.463 24.7547 124.866 24.7973 124.354 24.84V37.64H127.49C130.946 37.64 133.549 37.1707 135.298 36.232C137.047 35.2933 137.922 33.544 137.922 30.984C137.922 29.7467 137.687 28.7227 137.218 27.912C136.791 27.1013 136.151 26.4613 135.298 25.992C134.487 25.48 133.485 25.1387 132.29 24.968C131.095 24.7547 129.773 24.648 128.322 24.648ZM170.342 61.576C167.91 61.576 165.478 61.4907 163.046 61.32C160.656 61.192 158.16 60.8507 155.558 60.296V17.288C157.606 16.904 159.846 16.6267 162.278 16.456C164.71 16.2427 166.971 16.136 169.062 16.136C171.878 16.136 174.459 16.3493 176.806 16.776C179.195 17.16 181.243 17.8427 182.95 18.824C184.656 19.8053 185.979 21.1067 186.918 22.728C187.899 24.3067 188.39 26.2693 188.39 28.616C188.39 32.1573 186.683 34.952 183.27 37C186.086 38.0667 188.006 39.5173 189.03 41.352C190.054 43.1867 190.566 45.256 190.566 47.56C190.566 52.2107 188.859 55.7093 185.446 58.056C182.075 60.4027 177.04 61.576 170.342 61.576ZM165.286 41.672V53.128C166.011 53.2133 166.8 53.2773 167.654 53.32C168.507 53.3627 169.446 53.384 170.47 53.384C173.456 53.384 175.867 52.9573 177.702 52.104C179.536 51.2507 180.454 49.672 180.454 47.368C180.454 45.32 179.686 43.8693 178.15 43.016C176.614 42.12 174.416 41.672 171.558 41.672H165.286ZM165.286 34.056H170.15C173.222 34.056 175.419 33.672 176.742 32.904C178.064 32.0933 178.726 30.8133 178.726 29.064C178.726 27.272 178.043 26.0133 176.678 25.288C175.312 24.5627 173.307 24.2 170.662 24.2C169.808 24.2 168.891 24.2213 167.91 24.264C166.928 24.264 166.054 24.3067 165.286 24.392V34.056ZM211.87 16.136C218.483 16.136 223.56 17.3093 227.102 19.656C230.643 21.96 232.414 25.7573 232.414 31.048C232.414 36.3813 230.622 40.2427 227.038 42.632C223.454 44.9787 218.334 46.152 211.678 46.152H208.542V61H198.558V17.288C200.734 16.8613 203.038 16.5627 205.47 16.392C207.902 16.2213 210.035 16.136 211.87 16.136ZM212.51 24.648C211.784 24.648 211.059 24.6693 210.333 24.712C209.651 24.7547 209.054 24.7973 208.542 24.84V37.64H211.678C215.134 37.64 217.736 37.1707 219.486 36.232C221.235 35.2933 222.11 33.544 222.11 30.984C222.11 29.7467 221.875 28.7227 221.406 27.912C220.979 27.1013 220.339 26.4613 219.486 25.992C218.675 25.48 217.672 25.1387 216.478 24.968C215.283 24.7547 213.96 24.648 212.51 24.648Z" fill="#10B981"/>
</svg>
